<svg xmlns="http://www.w3.org/2000/svg" xmlns:xlink="http://www.w3.org/1999/xlink" xmlns:lucid="lucid" width="2001.96" height="1083.77"><g transform="translate(-118.03592120509848 3.7735989415923825)" lucid:page-tab-id="0_0"><path d="M0 0h2572.95v1360H0z" fill="#fff"/><path d="M247.62 382.9c15.13 0 27.4 22.46 27.4 50.16 0 27.7-12.27 50.15-27.4 50.15h-82.2c-15.12 0-27.38-22.44-27.38-50.14s12.26-50.16 27.4-50.16z" stroke="#000" stroke-opacity="0" fill="#a4d47c"/><use xlink:href="#a" transform="matrix(1,0,0,1,143.03592120509848,387.9022894600553) translate(44.525 49.1)"/><path d="M387.6 365.82a8 8 0 0 1 8-8h189.46a8 8 0 0 1 8 8V500.3a8 8 0 0 1-8 8H395.6a8 8 0 0 1-8-8z" stroke="#000" stroke-opacity="0" fill="#ffa167"/><use xlink:href="#b" transform="matrix(1,0,0,1,392.59462196779094,362.8245964770943) translate(15.625 52.5)"/><use xlink:href="#c" transform="matrix(1,0,0,1,392.59462196779094,362.8245964770943) translate(57.575 52.5)"/><use xlink:href="#d" transform="matrix(1,0,0,1,392.59462196779094,362.8245964770943) translate(126.525 52.5)"/><use xlink:href="#e" transform="matrix(1,0,0,1,392.59462196779094,362.8245964770943) translate(14.599999999999994 74.10000000000001)"/><use xlink:href="#f" transform="matrix(1,0,0,1,392.59462196779094,362.8245964770943) translate(60.55 74.10000000000001)"/><use xlink:href="#g" transform="matrix(1,0,0,1,392.59462196779094,362.8245964770943) translate(85.55 74.10000000000001)"/><use xlink:href="#h" transform="matrix(1,0,0,1,392.59462196779094,362.8245964770943) translate(145.5 74.10000000000001)"/><use xlink:href="#i" transform="matrix(1,0,0,1,392.59462196779094,362.8245964770943) translate(58 95.70000000000002)"/><use xlink:href="#j" transform="matrix(1,0,0,1,392.59462196779094,362.8245964770943) translate(88 95.70000000000002)"/><path d="M774 145.17a9.46 9.46 0 0 1 12.22 0l90.5 76.53a6.76 6.76 0 0 1 0 10.33l-90.5 76.53a9.46 9.46 0 0 1-12.22 0l-90.5-76.53a6.76 6.76 0 0 1 0-10.33z" stroke="#ff8f8f" stroke-width="4" fill="#ffd2d2"/><use xlink:href="#k" transform="matrix(1,0,0,1,682.3790039545765,145) translate(24.049999999999997 74.8)"/><use xlink:href="#l" transform="matrix(1,0,0,1,682.3790039545765,145) translate(84.95 74.8)"/><use xlink:href="#m" transform="matrix(1,0,0,1,682.3790039545765,145) translate(130.95 74.8)"/><use xlink:href="#n" transform="matrix(1,0,0,1,682.3790039545765,145) translate(61.025 96.4)"/><path d="M276.5 433.06h90.53" stroke="#03dac6" stroke-width="3" fill="none"/><path d="M276.55 434.56h-1.6l.06-1.5-.04-1.5h1.6z" stroke="#03dac6" stroke-width=".05" fill="#03dac6"/><path d="M382.8 433.06l-14.28 4.63v-9.28z" stroke="#03dac6" stroke-width="3" fill="#03dac6"/><path d="M1100 388a8 8 0 0 1 8-8h189.46a8 8 0 0 1 8 8v134.47a8 8 0 0 1-8 8H1108a8 8 0 0 1-8-8z" stroke="#000" stroke-opacity="0" fill="#ffa167"/><use xlink:href="#o" transform="matrix(1,0,0,1,1105,385) translate(35.525 74.10000000000001)"/><use xlink:href="#p" transform="matrix(1,0,0,1,1105,385) translate(73.475 74.10000000000001)"/><use xlink:href="#q" transform="matrix(1,0,0,1,1105,385) translate(119.475 74.10000000000001)"/><path d="M594.5 433.06h29.55a12 12 0 0 0 12-12v-182.2a12 12 0 0 1 12-12h10.4" stroke="#03dac6" stroke-width="3" fill="none"/><path d="M594.55 434.56H593v-3h1.55z" stroke="#03dac6" stroke-width=".05" fill="#03dac6"/><path d="M674.23 226.86l-14.27 4.64v-9.27z" stroke="#03dac6" stroke-width="3" fill="#03dac6"/><path d="M772.48 645.32a8.97 8.97 0 0 1 11.94 0l86.5 77.13a7.13 7.13 0 0 1 0 10.65l-86.5 77.12a8.97 8.97 0 0 1-11.94 0l-86.5-77.12a7.13 7.13 0 0 1 0-10.65z" stroke="#ff8f8f" stroke-width="4" fill="#ffd2d2"/><use xlink:href="#r" transform="matrix(1,0,0,1,685,645) translate(28.525000000000006 75.8)"/><use xlink:href="#s" transform="matrix(1,0,0,1,685,645) translate(90.47500000000001 75.8)"/><use xlink:href="#t" transform="matrix(1,0,0,1,685,645) translate(63.599999999999994 97.4)"/><path d="M1125.76 729.27H876.82v-3h248.94zm78.47-178.23l-.15 166.8-.5 2.1-.82 1.96-1.1 1.8-1.38 1.62-1.6 1.38-1.82 1.1-1.95.82-2.06.5-2.05.15h-41.14v-3h41l1.7-.13 1.62-.4 1.52-.62 1.4-.86 1.25-1.07 1.07-1.26.86-1.4.63-1.52.38-1.55.15-166.43z" stroke="#03dac6" stroke-width=".05" fill="#03dac6"/><path d="M876.86 729.27h-1.66l.12-1.5-.12-1.5h1.66z" fill="#03dac6"/><path d="M876.9 729.3h-1.73l.13-1.53-.13-1.52h1.72zm-1.67-3l.12 1.47-.12 1.48h1.6v-2.95z" stroke="#03dac6" stroke-width=".05" fill="#03dac6"/><path d="M1207.37 549.54h-9.27l4.63-14.27z" fill="#03dac6"/><path d="M1209.43 551.04h-13.4l6.7-20.62zm-9.27-3h5.14l-2.57-7.9z" stroke="#03dac6" stroke-width=".05" fill="#03dac6"/><use xlink:href="#u" transform="matrix(1,0,0,1,1125.7557015915338,716.9719254403633) translate(0.005000000000000782 14.4)"/><path d="M1100 917.53a8 8 0 0 1 8-8h189.46a8 8 0 0 1 8 8V1052a8 8 0 0 1-8 8H1108a8 8 0 0 1-8-8z" stroke="#000" stroke-opacity="0" fill="#ffa167"/><use xlink:href="#o" transform="matrix(1,0,0,1,1105,914.5338421022345) translate(9.099999999999994 74.10000000000001)"/><use xlink:href="#v" transform="matrix(1,0,0,1,1105,914.5338421022345) translate(47.05 74.10000000000001)"/><use xlink:href="#q" transform="matrix(1,0,0,1,1105,914.5338421022345) translate(145.9 74.10000000000001)"/><path d="M1079.43 983.27v3l-209.8-.1v-3zM779.95 972.7l.14 1.7.37 1.6.63 1.53.86 1.4 1.07 1.26 1.25 1.06 1.4.86 1.53.63 1.55.37 49.87.02v3l-50.22-.02-2.12-.5-1.96-.82-1.8-1.1-1.62-1.38-1.37-1.62-1.1-1.8-.82-1.96-.5-2.06-.15-2.05V816h3z" stroke="#03dac6" stroke-width=".05" fill="#03dac6"/><path d="M778.45 814.5l1.5-.1v1.64h-3v-1.65z" fill="#03dac6"/><path d="M778.45 814.48l1.53-.12v1.7h-3.05v-1.7zm-1.47 1.53h2.95v-1.58l-1.48.1-1.47-.1z" stroke="#03dac6" stroke-width=".05" fill="#03dac6"/><path d="M1095.2 984.77l-14.27 4.63v-9.27z" fill="#03dac6"/><path d="M1100.05 984.77l-20.62 6.7v-13.4zm-17.62 2.57l7.9-2.57-7.9-2.57z" stroke="#03dac6" stroke-width=".05" fill="#03dac6"/><use xlink:href="#w" transform="matrix(1,0,0,1,838.6171197058253,973.9669210511173) translate(0.005000000000000782 14.4)"/><path d="M1192.84 225.52l2.07.5 1.96.8 1.8 1.12 1.62 1.37 1.38 1.63 1.1 1.8.82 1.96.5 2.1.15 122.63h-3l-.15-122.27-.37-1.54-.62-1.52-.86-1.4-1.07-1.26-1.25-1.07-1.4-.86-1.52-.62-1.6-.38-1.7-.14h-56.65v-3h56.76zm-310.2 2.84v-3h220.4v3z" stroke="#03dac6" stroke-width=".05" fill="#03dac6"/><path d="M882.68 228.36H881l.14-1.5-.13-1.5h1.68z" fill="#03dac6"/><path d="M882.7 228.4h-1.72l.13-1.54-.12-1.52h1.72zm-1.66-3l.12 1.46-.12 1.48h1.6v-2.95z" stroke="#03dac6" stroke-width=".05" fill="#03dac6"/><path d="M1202.73 375.2l-4.63-14.27h9.27z" fill="#03dac6"/><path d="M1202.73 380.05l-6.7-20.62h13.4zm-2.57-17.62l2.57 7.9 2.57-7.9z" stroke="#03dac6" stroke-width=".05" fill="#03dac6"/><use xlink:href="#w" transform="matrix(1,0,0,1,1103.0282777611985,216.06283453127224) translate(0.005000000000000782 14.4)"/><path d="M1461.53 566.2a8.58 8.58 0 0 1 11.7 0l82.47 76.86a7.46 7.46 0 0 1 0 10.9l-82.47 76.87a8.58 8.58 0 0 1-11.7 0l-82.47-76.86a7.46 7.46 0 0 1 0-10.9z" stroke="#ff8f8f" stroke-width="4" fill="#ffd2d2"/><use xlink:href="#x" transform="matrix(1,0,0,1,1378.2090684078073,565.7437527890279) translate(29.025 86.60000000000001)"/><use xlink:href="#y" transform="matrix(1,0,0,1,1378.2090684078073,565.7437527890279) translate(94.975 86.60000000000001)"/><path d="M1644.4 265.5a8 8 0 0 1 8-8h189.46a8 8 0 0 1 8 8V400a8 8 0 0 1-8 8H1652.4a8 8 0 0 1-8-8z" stroke="#000" fill="#c3f7c8"/><use xlink:href="#z" transform="matrix(1,0,0,1,1649.3978168910412,262.5138245452507) translate(18.625 74.10000000000001)"/><use xlink:href="#A" transform="matrix(1,0,0,1,1649.3978168910412,262.5138245452507) translate(66.575 74.10000000000001)"/><use xlink:href="#B" transform="matrix(1,0,0,1,1649.3978168910412,262.5138245452507) translate(133.47500000000002 74.10000000000001)"/><use xlink:href="#C" transform="matrix(1,0,0,1,1649.3978168910412,262.5138245452507) translate(152.425 74.10000000000001)"/><path d="M1644.4 917.53a8 8 0 0 1 8-8h189.46a8 8 0 0 1 8 8V1052a8 8 0 0 1-8 8H1652.4a8 8 0 0 1-8-8z" stroke="#000" fill="#c3f7c8"/><use xlink:href="#z" transform="matrix(1,0,0,1,1649.3978168910412,914.5338421022345) translate(25.075000000000003 63.3)"/><use xlink:href="#D" transform="matrix(1,0,0,1,1649.3978168910412,914.5338421022345) translate(73.025 63.3)"/><use xlink:href="#E" transform="matrix(1,0,0,1,1649.3978168910412,914.5338421022345) translate(117.025 63.3)"/><use xlink:href="#F" transform="matrix(1,0,0,1,1649.3978168910412,914.5338421022345) translate(142.97500000000002 63.3)"/><use xlink:href="#G" transform="matrix(1,0,0,1,1649.3978168910412,914.5338421022345) translate(8.125 84.9)"/><use xlink:href="#H" transform="matrix(1,0,0,1,1649.3978168910412,914.5338421022345) translate(81.125 84.9)"/><use xlink:href="#B" transform="matrix(1,0,0,1,1649.3978168910412,914.5338421022345) translate(143.97500000000002 84.9)"/><use xlink:href="#C" transform="matrix(1,0,0,1,1649.3978168910412,914.5338421022345) translate(162.925 84.9)"/><path d="M2072.6 934.6c15.13 0 27.4 22.47 27.4 50.17 0 27.7-12.27 50.15-27.4 50.15h-82.18c-15.13 0-27.4-22.45-27.4-50.15s12.27-50.16 27.4-50.16z" stroke="#000" stroke-opacity="0" fill="#a4d47c"/><use xlink:href="#I" transform="matrix(1,0,0,1,1968.0239789842594,939.6115350851954) translate(47.5 49.1)"/><path d="M1306.92 455.23h148.46a12 12 0 0 1 12 12v74.04" stroke="#03dac6" stroke-width="3" fill="none"/><path d="M1306.95 456.73h-1.53v-3h1.53z" stroke="#03dac6" stroke-width=".05" fill="#03dac6"/><path d="M1467.38 557.03l-4.64-14.26h9.28z" stroke="#03dac6" stroke-width="3" fill="#03dac6"/><path d="M1306.92 984.77h148.46a12 12 0 0 0 12-12v-217" stroke="#03dac6" stroke-width="3" fill="none"/><path d="M1306.95 986.27h-1.53v-3h1.53z" stroke="#03dac6" stroke-width=".05" fill="#03dac6"/><path d="M1467.38 740l4.64 14.26h-9.28z" stroke="#03dac6" stroke-width="3" fill="#03dac6"/><path d="M1603.36 638.57l-.5 2.12-.8 1.95-1.12 1.8-1.38 1.6-1.6 1.4-1.82 1.1-1.95.8-2.08.5-2.05.17h-28.5v-3h28.38l1.7-.14 1.6-.38 1.53-.63 1.4-.86 1.25-1.06 1.07-1.26.86-1.4.63-1.52.36-1.55.07-136.77h3zm20-304.32l-11.04.14-1.55.37-1.52.63-1.4.86-1.26 1.07-1.08 1.25-.86 1.4-.63 1.52-.38 1.6-.14 1.7-.06 135.03h-3l.07-135.14.17-2.07.5-2.06.8-1.95 1.12-1.8 1.36-1.62 1.6-1.38 1.82-1.1 1.96-.82 2.1-.5 11.37-.15z" stroke="#03dac6" stroke-width=".05" fill="#03dac6"/><path d="M1561.62 650.02h-1.67l.13-1.5-.13-1.5h1.67z" fill="#03dac6"/><path d="M1561.64 650.04h-1.7l.1-1.52-.1-1.53h1.7zm-1.66-3l.12 1.48-.12 1.47h1.6v-2.96z" stroke="#03dac6" stroke-width=".05" fill="#03dac6"/><path d="M1639.1 332.75l-14.27 4.63v-9.27z" fill="#03dac6"/><path d="M1643.95 332.75l-20.62 6.7v-13.4zm-17.62 2.57l7.9-2.57-7.9-2.57z" stroke="#03dac6" stroke-width=".05" fill="#03dac6"/><g><use xlink:href="#w" transform="matrix(1,0,0,1,1586.5123904654656,479.8312908617623) translate(0.005000000000000782 14.4)"/></g><path d="M1603.5 972.7l.15 1.7.38 1.6.63 1.53.86 1.4 1.07 1.26 1.24 1.06 1.4.86 1.53.63 1.55.37 11.03.15-.04 3-11.35-.15-2.1-.5-1.97-.82-1.8-1.1-1.62-1.38-1.37-1.62-1.12-1.8-.8-1.96-.5-2.06-.17-2.05-.06-145.4h3zm-11.38-325.52l2.07.5 1.94.8 1.8 1.1 1.62 1.4 1.38 1.6 1.1 1.8.82 1.96.5 2.12.07 147.38h-3l-.07-147.02-.37-1.55-.64-1.52-.86-1.4-1.07-1.26-1.25-1.08-1.4-.86-1.52-.63-1.6-.38-1.7-.13h-28.38v-3h28.5z" stroke="#03dac6" stroke-width=".05" fill="#03dac6"/><path d="M1561.62 650.02h-1.67l.13-1.5-.13-1.5h1.67z" fill="#03dac6"/><path d="M1561.64 650.04h-1.7l.1-1.52-.1-1.53h1.7zm-1.66-3l.12 1.48-.12 1.47h1.6v-2.96z" stroke="#03dac6" stroke-width=".05" fill="#03dac6"/><path d="M1639.1 984.77l-14.27 4.63v-9.27z" fill="#03dac6"/><path d="M1643.95 984.77l-20.62 6.7v-13.4zm-17.62 2.57l7.9-2.57-7.9-2.57z" stroke="#03dac6" stroke-width=".05" fill="#03dac6"/><g><use xlink:href="#u" transform="matrix(1,0,0,1,1590.0623904654656,805.8412996402542) translate(0.005000000000000782 14.4)"/></g><path d="M1851.8 332.75h26.5a12 12 0 0 1 12 12v512.33a12 12 0 0 1-12 12h-119.17a12 12 0 0 0-12 12v7.38" stroke="#03dac6" stroke-width="3" fill="none"/><path d="M1851.85 334.25h-1.54v-3h1.55z" stroke="#03dac6" stroke-width=".05" fill="#03dac6"/><path d="M1747.13 904.23l-4.64-14.27h9.27z" stroke="#03dac6" stroke-width="3" fill="#03dac6"/><path d="M1851.8 984.77h90.6" stroke="#03dac6" stroke-width="3" fill="none"/><path d="M1851.85 986.27h-1.54v-3h1.55z" stroke="#03dac6" stroke-width=".05" fill="#03dac6"/><path d="M1958.17 984.77l-14.27 4.63v-9.27z" stroke="#03dac6" stroke-width="3" fill="#03dac6"/><path d="M740 22.23a6 6 0 0 1 6-6h718.04a6 6 0 0 1 6 6v39.6a6 6 0 0 1-6 6H746a6 6 0 0 1-6-6z" stroke="#000" stroke-opacity="0" stroke-width="2" fill="#fff" fill-opacity="0"/><g><use xlink:href="#J" transform="matrix(1,0,0,1,744,20.226401058407617) translate(193.16370370370373 28.584444444444443)"/><use xlink:href="#K" transform="matrix(1,0,0,1,744,20.226401058407617) translate(254.27604938271608 28.584444444444443)"/><use xlink:href="#L" transform="matrix(1,0,0,1,744,20.226401058407617) translate(364.8464197530864 28.584444444444443)"/><use xlink:href="#M" transform="matrix(1,0,0,1,744,20.226401058407617) translate(431.7130864197531 28.584444444444443)"/></g><path d="M779.95 620.42h-3v-132.7h3zm1.66-154.3h-3V314.3h3z" stroke="#03dac6" stroke-width=".05" fill="#03dac6"/><path d="M780.1 312.8l1.5-.1v1.64h-3v-1.64z" fill="#03dac6"/><path d="M780.1 312.78l1.54-.1v1.7h-3.05v-1.7zm-1.46 1.54h2.95v-1.6l-1.5.1-1.46-.1z" stroke="#03dac6" stroke-width=".05" fill="#03dac6"/><path d="M778.45 636.2l-4.63-14.28h9.27z" fill="#03dac6"/><path d="M778.45 641.04l-6.7-20.62h13.4zm-2.57-17.62l2.57 7.9 2.57-7.9z" stroke="#03dac6" stroke-width=".05" fill="#03dac6"/><g><use xlink:href="#u" transform="matrix(1,0,0,1,767.331267349321,466.1224068044838) translate(0.005000000000000782 14.4)"/></g><path d="M936.95 69.3V74a6 6 0 0 0 6 6h337.6a6 6 0 0 0 6-6v-4.73" stroke="#979ea8" stroke-width="3" fill="none"/><path d="M938.45 69.35h-3V67.8h3zM1288.04 69.3h-3v-1.53h3z" stroke="#979ea8" stroke-width=".05" fill="#979ea8"/><defs><path d="M194-120c59 52 2 134-86 124-53-6-90-18-98-63l31-7c8 30 29 43 70 43 46 0 84-17 71-62-32-43-135-20-137-98-3-89 178-90 191-16l-30 9c-8-48-127-53-127 5 0 53 81 35 115 65" id="N"/><path d="M51-54c-9 22 5 41 31 30L79-1C43 14 10-4 19-52l22-115H19l5-23h22l19-43h21l-9 43h35l-4 23H73" id="O"/><path d="M165-48c-4 18 1 34 23 27l-3 20c-29 8-62 0-52-35h-2C116-14 99 4 63 4 30 4 8-16 8-49c0-68 71-67 138-67 10-26 0-56-31-54-26 1-42 9-47 31l-32-5c8-67 160-71 144 15-5 28-9 54-15 81zM42-50c3 52 80 24 89-6 7-12 7-24 11-38-47 1-103-4-100 44" id="P"/><path d="M66-151c12-25 30-51 66-40l-6 26C45-176 58-65 38 0H6l36-190h30" id="Q"/><g id="a"><use transform="matrix(0.05,0,0,0.05,0,0)" xlink:href="#N"/><use transform="matrix(0.05,0,0,0.05,12,0)" xlink:href="#O"/><use transform="matrix(0.05,0,0,0.05,17,0)" xlink:href="#P"/><use transform="matrix(0.05,0,0,0.05,27,0)" xlink:href="#Q"/><use transform="matrix(0.05,0,0,0.05,32.95,0)" xlink:href="#O"/></g><path d="M119 0H84L31-248h34l41 218 126-218h36" id="R"/><path d="M125-24c46 0 70-25 89-51l25 16C214-24 183 4 123 4 8 4-5-146 60-208c32-50 158-61 191-5 5 7 9 14 11 22l-32 10c-9-28-33-43-69-43-74 0-108 51-108 125 0 46 24 75 72 75" id="S"/><g id="b"><use transform="matrix(0.05,0,0,0.05,0,0)" xlink:href="#R"/><use transform="matrix(0.05,0,0,0.05,12,0)" xlink:href="#S"/><use transform="matrix(0.05,0,0,0.05,24.950000000000003,0)" xlink:href="#N"/></g><path d="M55-144c13 50 104 24 104 88C159 21 15 23 1-39l26-10c6 40 102 42 102-4-13-50-104-23-104-87 0-71 143-71 148-8l-29 4c-5-35-85-37-89 0" id="T"/><path d="M44-68c0 29 11 47 38 47 30 0 42-19 51-41l28 9C148-21 126 4 82 4 31 4 10-29 12-85c3-77 74-140 146-93 12 8 15 23 18 40l-31 5c-1-22-13-36-36-36-52 0-65 49-65 101" id="U"/><path d="M67-158c22-48 132-52 116 29L158 0h-32l25-140c3-38-53-32-70-12C52-117 51-52 38 0H6l36-190h30" id="V"/><path d="M111-194c62-3 86 47 72 106H45c-7 38 6 69 45 68 27-1 43-14 53-32l24 11C152-15 129 4 87 4 38 3 12-23 12-71c0-70 32-119 99-123zm44 81c14-66-71-72-95-28-4 8-8 17-11 28h106" id="W"/><g id="c"><use transform="matrix(0.05,0,0,0.05,0,0)" xlink:href="#T"/><use transform="matrix(0.05,0,0,0.05,9,0)" xlink:href="#U"/><use transform="matrix(0.05,0,0,0.05,18,0)" xlink:href="#P"/><use transform="matrix(0.05,0,0,0.05,28,0)" xlink:href="#V"/><use transform="matrix(0.05,0,0,0.05,38,0)" xlink:href="#V"/><use transform="matrix(0.05,0,0,0.05,48,0)" xlink:href="#W"/><use transform="matrix(0.05,0,0,0.05,58,0)" xlink:href="#Q"/></g><path d="M188 0h-37l-8-164L71 0H34L18-190h31l8 164 75-164h34l8 164 74-164h31" id="X"/><path d="M30-147c31-64 166-65 159 27C183-49 158 1 86 4 9 8 1-88 30-147zM88-20c53 0 68-48 68-100 0-31-11-51-44-50-52 1-68 46-68 97 0 32 13 53 44 53" id="Y"/><path d="M127 0L80-88 50-66 37 0H6l51-261h31L57-100l99-90h39l-93 82L161 0h-34" id="Z"/><g id="d"><use transform="matrix(0.05,0,0,0.05,0,0)" xlink:href="#X"/><use transform="matrix(0.05,0,0,0.05,12.950000000000001,0)" xlink:href="#Y"/><use transform="matrix(0.05,0,0,0.05,22.950000000000003,0)" xlink:href="#Q"/><use transform="matrix(0.05,0,0,0.05,28.900000000000002,0)" xlink:href="#Z"/><use transform="matrix(0.05,0,0,0.05,37.900000000000006,0)" xlink:href="#W"/><use transform="matrix(0.05,0,0,0.05,47.900000000000006,0)" xlink:href="#Q"/></g><path d="M67-162c32-53 139-36 121 50C175-51 163 2 97 4 68 4 52-11 42-31 38 6 28 39 22 75H-9l50-265h29c-1 10 0 20-3 28zm89 36c0-26-10-43-35-43-54 0-67 50-69 103-1 29 14 45 42 46 53 0 62-58 62-106" id="aa"/><path d="M50-231l6-30h32l-6 30H50zM6 0l37-190h31L37 0H6" id="ab"/><g id="e"><use transform="matrix(0.05,0,0,0.05,0,0)" xlink:href="#aa"/><use transform="matrix(0.05,0,0,0.05,10,0)" xlink:href="#ab"/><use transform="matrix(0.05,0,0,0.05,13.949999999999998,0)" xlink:href="#U"/><use transform="matrix(0.05,0,0,0.05,22.95,0)" xlink:href="#Z"/><use transform="matrix(0.05,0,0,0.05,31.950000000000003,0)" xlink:href="#T"/></g><path d="M67 3c-93-2-31-127-26-193h32L48-50c-3 39 53 32 70 12 30-34 30-101 43-152h32L157 0h-30c1-10 6-24 4-33-14 20-29 37-64 36" id="ac"/><g id="f"><use transform="matrix(0.05,0,0,0.05,0,0)" xlink:href="#ac"/><use transform="matrix(0.05,0,0,0.05,10,0)" xlink:href="#aa"/></g><path d="M68-162c25-46 127-43 121 31C183-60 169 1 98 4 69 5 53-11 43-31L36 0H5l52-261h31zm88 36c2-27-9-43-34-43-55 0-70 51-70 103 0 29 15 45 43 46 52 0 58-58 61-106" id="ad"/><path d="M67-158c15-20 31-36 64-36 94 0 33 127 27 194h-32l25-140c3-38-53-32-70-12C52-117 51-51 37 0H6l51-261h31" id="ae"/><g id="g"><use transform="matrix(0.05,0,0,0.05,0,0)" xlink:href="#ad"/><use transform="matrix(0.05,0,0,0.05,10,0)" xlink:href="#Q"/><use transform="matrix(0.05,0,0,0.05,15.949999999999998,0)" xlink:href="#P"/><use transform="matrix(0.05,0,0,0.05,25.950000000000003,0)" xlink:href="#V"/><use transform="matrix(0.05,0,0,0.05,35.95,0)" xlink:href="#U"/><use transform="matrix(0.05,0,0,0.05,44.95,0)" xlink:href="#ae"/></g><path d="M76-167L44 0H12l33-167H18l4-23h27c3-47 25-81 82-69l-4 24c-35-8-44 15-46 45h37l-5 23H76" id="af"/><path d="M248-111c6-24 9-61-24-58-72 9-57 108-77 169h-31l26-142c3-37-50-30-64-10C52-115 50-51 37 0H6l36-190h30c-1 10-6 24-4 32 13-43 101-52 105 5 13-22 29-41 61-41 90 0 28 129 23 194h-31" id="ag"/><g id="h"><use transform="matrix(0.05,0,0,0.05,0,0)" xlink:href="#af"/><use transform="matrix(0.05,0,0,0.05,5,0)" xlink:href="#Q"/><use transform="matrix(0.05,0,0,0.05,10.95,0)" xlink:href="#Y"/><use transform="matrix(0.05,0,0,0.05,20.95,0)" xlink:href="#ag"/></g><g id="i"><use transform="matrix(0.05,0,0,0.05,0,0)" xlink:href="#O"/><use transform="matrix(0.05,0,0,0.05,5,0)" xlink:href="#ae"/><use transform="matrix(0.05,0,0,0.05,15,0)" xlink:href="#W"/></g><path d="M133-28C103 26-5 8 13-77c13-62 24-115 90-117 29-1 46 15 56 35 2-12 6-24 8-34h31L144 75h-31zM45-64c-2 27 10 43 35 43 54-1 69-50 69-103 0-29-15-46-42-46-53-1-58 58-62 106" id="ah"/><g id="j"><use transform="matrix(0.05,0,0,0.05,0,0)" xlink:href="#ah"/><use transform="matrix(0.05,0,0,0.05,10,0)" xlink:href="#ac"/><use transform="matrix(0.05,0,0,0.05,20,0)" xlink:href="#W"/><use transform="matrix(0.05,0,0,0.05,30,0)" xlink:href="#ac"/><use transform="matrix(0.05,0,0,0.05,40,0)" xlink:href="#W"/></g><path d="M63-220v92h138v28H63V0H30v-248h175v28H63" id="ai"/><path d="M100-194c62-1 85 37 85 99 1 63-27 99-86 99S16-35 15-95c0-66 28-99 85-99zM99-20c44 1 53-31 53-75 0-43-8-75-51-75s-53 32-53 75 10 74 51 75" id="aj"/><path d="M114-163C36-179 61-72 57 0H25l-1-190h30c1 12-1 29 2 39 6-27 23-49 58-41v29" id="ak"/><path d="M96-169c-40 0-48 33-48 73s9 75 48 75c24 0 41-14 43-38l32 2c-6 37-31 61-74 61-59 0-76-41-82-99-10-93 101-131 147-64 4 7 5 14 7 22l-32 3c-4-21-16-35-41-35" id="al"/><path d="M100-194c63 0 86 42 84 106H49c0 40 14 67 53 68 26 1 43-12 49-29l28 8c-11 28-37 45-77 45C44 4 14-33 15-96c1-61 26-98 85-98zm52 81c6-60-76-77-97-28-3 7-6 17-6 28h103" id="am"/><path d="M85-194c31 0 48 13 60 33l-1-100h32l1 261h-30c-2-10 0-23-3-31C134-8 116 4 85 4 32 4 16-35 15-94c0-66 23-100 70-100zm9 24c-40 0-46 34-46 75 0 40 6 74 45 74 42 0 51-32 51-76 0-42-9-74-50-73" id="an"/><g id="k"><use transform="matrix(0.05,0,0,0.05,0,0)" xlink:href="#ai"/><use transform="matrix(0.05,0,0,0.05,10.950000000000001,0)" xlink:href="#aj"/><use transform="matrix(0.05,0,0,0.05,20.950000000000003,0)" xlink:href="#ak"/><use transform="matrix(0.05,0,0,0.05,26.900000000000002,0)" xlink:href="#al"/><use transform="matrix(0.05,0,0,0.05,35.900000000000006,0)" xlink:href="#am"/><use transform="matrix(0.05,0,0,0.05,45.900000000000006,0)" xlink:href="#an"/></g><path d="M160-131c35 5 61 23 61 61C221 17 115-2 30 0v-248c76 3 177-17 177 60 0 33-19 50-47 57zm-97-11c50-1 110 9 110-42 0-47-63-36-110-37v79zm0 115c55-2 124 14 124-45 0-56-70-42-124-44v89" id="ao"/><path d="M141-36C126-15 110 5 73 4 37 3 15-17 15-53c-1-64 63-63 125-63 3-35-9-54-41-54-24 1-41 7-42 31l-33-3c5-37 33-52 76-52 45 0 72 20 72 64v82c-1 20 7 32 28 27v20c-31 9-61-2-59-35zM48-53c0 20 12 33 32 33 41-3 63-29 60-74-43 2-92-5-92 41" id="ap"/><path d="M135-143c-3-34-86-38-87 0 15 53 115 12 119 90S17 21 10-45l28-5c4 36 97 45 98 0-10-56-113-15-118-90-4-57 82-63 122-42 12 7 21 19 24 35" id="aq"/><g id="l"><use transform="matrix(0.05,0,0,0.05,0,0)" xlink:href="#ao"/><use transform="matrix(0.05,0,0,0.05,12,0)" xlink:href="#ap"/><use transform="matrix(0.05,0,0,0.05,22,0)" xlink:href="#aq"/><use transform="matrix(0.05,0,0,0.05,31,0)" xlink:href="#am"/></g><path d="M185-189c-5-48-123-54-124 2 14 75 158 14 163 119 3 78-121 87-175 55-17-10-28-26-33-46l33-7c5 56 141 63 141-1 0-78-155-14-162-118-5-82 145-84 179-34 5 7 8 16 11 25" id="ar"/><path d="M117-194c89-4 53 116 60 194h-32v-121c0-31-8-49-39-48C34-167 62-67 57 0H25l-1-190h30c1 10-1 24 2 32 11-22 29-35 61-36" id="as"/><g id="m"><use transform="matrix(0.05,0,0,0.05,0,0)" xlink:href="#ar"/><use transform="matrix(0.05,0,0,0.05,12,0)" xlink:href="#al"/><use transform="matrix(0.05,0,0,0.05,21,0)" xlink:href="#ap"/><use transform="matrix(0.05,0,0,0.05,31,0)" xlink:href="#as"/></g><path d="M115-194c53 0 69 39 70 98 0 66-23 100-70 100C84 3 66-7 56-30L54 0H23l1-261h32v101c10-23 28-34 59-34zm-8 174c40 0 45-34 45-75 0-40-5-75-45-74-42 0-51 32-51 76 0 43 10 73 51 73" id="at"/><path d="M24 0v-261h32V0H24" id="au"/><path d="M103-251c84 0 111 97 45 133-19 10-37 24-39 52H78c0-63 77-55 77-114 0-30-21-42-52-43-32 0-53 17-56 46l-32-2c7-45 34-72 88-72zM77 0v-35h34V0H77" id="av"/><g id="n"><use transform="matrix(0.05,0,0,0.05,0,0)" xlink:href="#am"/><use transform="matrix(0.05,0,0,0.05,10,0)" xlink:href="#as"/><use transform="matrix(0.05,0,0,0.05,20,0)" xlink:href="#ap"/><use transform="matrix(0.05,0,0,0.05,30,0)" xlink:href="#at"/><use transform="matrix(0.05,0,0,0.05,40,0)" xlink:href="#au"/><use transform="matrix(0.05,0,0,0.05,43.95,0)" xlink:href="#am"/><use transform="matrix(0.05,0,0,0.05,53.95,0)" xlink:href="#an"/><use transform="matrix(0.05,0,0,0.05,63.95,0)" xlink:href="#av"/></g><path d="M249-183c0 48-29 72-75 77L221 0h-36l-43-103H65L45 0H11l48-248c83 2 190-17 190 65zm-34 3c0-55-74-39-127-41l-18 92c63-1 145 13 145-51" id="aw"/><g id="o"><use transform="matrix(0.05,0,0,0.05,0,0)" xlink:href="#aw"/><use transform="matrix(0.05,0,0,0.05,12.950000000000001,0)" xlink:href="#ac"/><use transform="matrix(0.05,0,0,0.05,22.950000000000003,0)" xlink:href="#V"/></g><path d="M219-77C219 17 104-2 11 0l48-248c73 2 169-15 169 57 0 38-24 54-60 60 29 5 51 21 51 54zm-26-111c0-44-62-31-105-33l-16 79c55 0 121 9 121-46zm-7 110c-1-49-69-36-119-38L50-27c61-1 137 12 136-51" id="ax"/><g id="p"><use transform="matrix(0.05,0,0,0.05,0,0)" xlink:href="#ax"/><use transform="matrix(0.05,0,0,0.05,12,0)" xlink:href="#P"/><use transform="matrix(0.05,0,0,0.05,22,0)" xlink:href="#T"/><use transform="matrix(0.05,0,0,0.05,31,0)" xlink:href="#W"/></g><g id="q"><use transform="matrix(0.05,0,0,0.05,0,0)" xlink:href="#N"/><use transform="matrix(0.05,0,0,0.05,12,0)" xlink:href="#U"/><use transform="matrix(0.05,0,0,0.05,21,0)" xlink:href="#P"/><use transform="matrix(0.05,0,0,0.05,31,0)" xlink:href="#V"/></g><path d="M106-169C34-169 62-67 57 0H25v-261h32l-1 103c12-21 28-36 61-36 89 0 53 116 60 194h-32v-121c2-32-8-49-39-48" id="ay"/><g id="r"><use transform="matrix(0.05,0,0,0.05,0,0)" xlink:href="#ao"/><use transform="matrix(0.05,0,0,0.05,12,0)" xlink:href="#ak"/><use transform="matrix(0.05,0,0,0.05,17.95,0)" xlink:href="#ap"/><use transform="matrix(0.05,0,0,0.05,27.950000000000003,0)" xlink:href="#as"/><use transform="matrix(0.05,0,0,0.05,37.95,0)" xlink:href="#al"/><use transform="matrix(0.05,0,0,0.05,46.95,0)" xlink:href="#ay"/></g><g id="s"><use transform="matrix(0.05,0,0,0.05,0,0)" xlink:href="#aq"/><use transform="matrix(0.05,0,0,0.05,9,0)" xlink:href="#al"/><use transform="matrix(0.05,0,0,0.05,18,0)" xlink:href="#ap"/><use transform="matrix(0.05,0,0,0.05,28,0)" xlink:href="#as"/><use transform="matrix(0.05,0,0,0.05,38,0)" xlink:href="#as"/><use transform="matrix(0.05,0,0,0.05,48,0)" xlink:href="#am"/><use transform="matrix(0.05,0,0,0.05,58,0)" xlink:href="#an"/></g><path d="M24-231v-30h32v30H24zM24 0v-190h32V0H24" id="az"/><g id="t"><use transform="matrix(0.05,0,0,0.05,0,0)" xlink:href="#am"/><use transform="matrix(0.05,0,0,0.05,10,0)" xlink:href="#ap"/><use transform="matrix(0.05,0,0,0.05,20,0)" xlink:href="#ak"/><use transform="matrix(0.05,0,0,0.05,25.950000000000003,0)" xlink:href="#au"/><use transform="matrix(0.05,0,0,0.05,29.899999999999995,0)" xlink:href="#az"/><use transform="matrix(0.05,0,0,0.05,33.85,0)" xlink:href="#am"/><use transform="matrix(0.05,0,0,0.05,43.85,0)" xlink:href="#ak"/><use transform="matrix(0.05,0,0,0.05,49.800000000000004,0)" xlink:href="#av"/></g><path fill="#3a414a" d="M175 0L67-191c6 58 2 128 3 191H24v-248h59L193-55c-6-58-2-129-3-193h46V0h-61" id="aA"/><path fill="#3a414a" d="M110-194c64 0 96 36 96 99 0 64-35 99-97 99-61 0-95-36-95-99 0-62 34-99 96-99zm-1 164c35 0 45-28 45-65 0-40-10-65-43-65-34 0-45 26-45 65 0 36 10 65 43 65" id="aB"/><g id="u"><use transform="matrix(0.05,0,0,0.05,0,0)" xlink:href="#aA"/><use transform="matrix(0.05,0,0,0.05,12.950000000000001,0)" xlink:href="#aB"/></g><path d="M14 0l48-248h34L48 0H14" id="aC"/><path d="M6 0l50-261h32L37 0H6" id="aD"/><g id="v"><use transform="matrix(0.05,0,0,0.05,0,0)" xlink:href="#aC"/><use transform="matrix(0.05,0,0,0.05,5,0)" xlink:href="#V"/><use transform="matrix(0.05,0,0,0.05,15,0)" xlink:href="#U"/><use transform="matrix(0.05,0,0,0.05,24,0)" xlink:href="#Q"/><use transform="matrix(0.05,0,0,0.05,29.950000000000003,0)" xlink:href="#W"/><use transform="matrix(0.05,0,0,0.05,39.95,0)" xlink:href="#ag"/><use transform="matrix(0.05,0,0,0.05,54.900000000000006,0)" xlink:href="#W"/><use transform="matrix(0.05,0,0,0.05,64.9,0)" xlink:href="#V"/><use transform="matrix(0.05,0,0,0.05,74.9,0)" xlink:href="#O"/><use transform="matrix(0.05,0,0,0.05,79.9,0)" xlink:href="#P"/><use transform="matrix(0.05,0,0,0.05,89.9,0)" xlink:href="#aD"/></g><path fill="#3a414a" d="M146-102V0H94v-102L6-248h54l60 105 60-105h54" id="aE"/><path fill="#3a414a" d="M185-48c-13 30-37 53-82 52C43 2 14-33 14-96s30-98 90-98c62 0 83 45 84 108H66c0 31 8 55 39 56 18 0 30-7 34-22zm-45-69c5-46-57-63-70-21-2 6-4 13-4 21h74" id="aF"/><path fill="#3a414a" d="M137-138c1-29-70-34-71-4 15 46 118 7 119 86 1 83-164 76-172 9l43-7c4 19 20 25 44 25 33 8 57-30 24-41C81-84 22-81 20-136c-2-80 154-74 161-7" id="aG"/><g id="w"><use transform="matrix(0.05,0,0,0.05,0,0)" xlink:href="#aE"/><use transform="matrix(0.05,0,0,0.05,11,0)" xlink:href="#aF"/><use transform="matrix(0.05,0,0,0.05,21,0)" xlink:href="#aG"/></g><path d="M59-47c-2 24 18 29 38 22v24C64 9 27 4 27-40v-127H5v-23h24l9-43h21v43h35v23H59v120" id="aH"/><g id="x"><use transform="matrix(0.05,0,0,0.05,0,0)" xlink:href="#ar"/><use transform="matrix(0.05,0,0,0.05,12,0)" xlink:href="#am"/><use transform="matrix(0.05,0,0,0.05,22,0)" xlink:href="#al"/><use transform="matrix(0.05,0,0,0.05,31,0)" xlink:href="#ak"/><use transform="matrix(0.05,0,0,0.05,36.95,0)" xlink:href="#am"/><use transform="matrix(0.05,0,0,0.05,46.95,0)" xlink:href="#aH"/><use transform="matrix(0.05,0,0,0.05,51.95,0)" xlink:href="#aq"/></g><path d="M101-234c-31-9-42 10-38 44h38v23H63V0H32v-167H5v-23h27c-7-52 17-82 69-68v24" id="aI"/><path d="M84 4C-5 8 30-112 23-190h32v120c0 31 7 50 39 49 72-2 45-101 50-169h31l1 190h-30c-1-10 1-25-2-33-11 22-28 36-60 37" id="aJ"/><g id="y"><use transform="matrix(0.05,0,0,0.05,0,0)" xlink:href="#aI"/><use transform="matrix(0.05,0,0,0.05,5,0)" xlink:href="#aj"/><use transform="matrix(0.05,0,0,0.05,15,0)" xlink:href="#aJ"/><use transform="matrix(0.05,0,0,0.05,25,0)" xlink:href="#as"/><use transform="matrix(0.05,0,0,0.05,35,0)" xlink:href="#an"/><use transform="matrix(0.05,0,0,0.05,45,0)" xlink:href="#av"/></g><g id="z"><use transform="matrix(0.05,0,0,0.05,0,0)" xlink:href="#N"/><use transform="matrix(0.05,0,0,0.05,12,0)" xlink:href="#O"/><use transform="matrix(0.05,0,0,0.05,17,0)" xlink:href="#Y"/><use transform="matrix(0.05,0,0,0.05,27,0)" xlink:href="#Q"/><use transform="matrix(0.05,0,0,0.05,32.95,0)" xlink:href="#W"/></g><path d="M133-28C103 26-5 8 13-77c13-62 24-115 90-117 29-1 46 15 56 35l19-102h32L160 0h-30zM45-64c-2 27 10 43 35 43 54-1 69-50 69-103 0-29-15-46-42-46-53-1-58 58-62 106" id="aK"/><path d="M103-194c29 0 47 14 56 36 2-11 5-23 8-32h30L160-5C157 61 82 97 21 62 9 55 4 45 1 30l28-7c7 42 83 31 92-3 4-16 9-38 13-55-13 20-29 36-62 36-40 0-60-25-60-64 0-71 23-131 91-131zm4 24c-53 0-58 54-61 104-2 27 10 44 36 44 49 0 65-50 67-102 1-29-15-46-42-46" id="aL"/><g id="A"><use transform="matrix(0.05,0,0,0.05,0,0)" xlink:href="#af"/><use transform="matrix(0.05,0,0,0.05,5,0)" xlink:href="#ab"/><use transform="matrix(0.05,0,0,0.05,8.95,0)" xlink:href="#V"/><use transform="matrix(0.05,0,0,0.05,18.95,0)" xlink:href="#aK"/><use transform="matrix(0.05,0,0,0.05,28.950000000000003,0)" xlink:href="#ab"/><use transform="matrix(0.05,0,0,0.05,32.9,0)" xlink:href="#V"/><use transform="matrix(0.05,0,0,0.05,42.9,0)" xlink:href="#aL"/><use transform="matrix(0.05,0,0,0.05,52.900000000000006,0)" xlink:href="#T"/></g><g id="B"><use transform="matrix(0.05,0,0,0.05,0,0)" xlink:href="#ab"/><use transform="matrix(0.05,0,0,0.05,3.95,0)" xlink:href="#V"/></g><path d="M248-139C247-14 144 9 11 0l48-248c105-6 190 8 189 109zm-34 0c1-70-52-87-126-82L50-27c98 7 163-21 164-112" id="aM"/><g id="C"><use transform="matrix(0.05,0,0,0.05,0,0)" xlink:href="#aM"/><use transform="matrix(0.05,0,0,0.05,12.950000000000001,0)" xlink:href="#ax"/></g><g id="D"><use transform="matrix(0.05,0,0,0.05,0,0)" xlink:href="#ae"/><use transform="matrix(0.05,0,0,0.05,10,0)" xlink:href="#P"/><use transform="matrix(0.05,0,0,0.05,20,0)" xlink:href="#T"/><use transform="matrix(0.05,0,0,0.05,29,0)" xlink:href="#ae"/></g><g id="E"><use transform="matrix(0.05,0,0,0.05,0,0)" xlink:href="#af"/><use transform="matrix(0.05,0,0,0.05,5,0)" xlink:href="#Y"/><use transform="matrix(0.05,0,0,0.05,15,0)" xlink:href="#Q"/></g><g id="F"><use transform="matrix(0.05,0,0,0.05,0,0)" xlink:href="#aD"/><use transform="matrix(0.05,0,0,0.05,3.95,0)" xlink:href="#P"/><use transform="matrix(0.05,0,0,0.05,13.949999999999998,0)" xlink:href="#T"/><use transform="matrix(0.05,0,0,0.05,22.95,0)" xlink:href="#O"/></g><g id="G"><use transform="matrix(0.05,0,0,0.05,0,0)" xlink:href="#T"/><use transform="matrix(0.05,0,0,0.05,9,0)" xlink:href="#U"/><use transform="matrix(0.05,0,0,0.05,18,0)" xlink:href="#P"/><use transform="matrix(0.05,0,0,0.05,28,0)" xlink:href="#V"/><use transform="matrix(0.05,0,0,0.05,38,0)" xlink:href="#V"/><use transform="matrix(0.05,0,0,0.05,48,0)" xlink:href="#W"/><use transform="matrix(0.05,0,0,0.05,58,0)" xlink:href="#aK"/></g><g id="H"><use transform="matrix(0.05,0,0,0.05,0,0)" xlink:href="#U"/><use transform="matrix(0.05,0,0,0.05,9,0)" xlink:href="#Y"/><use transform="matrix(0.05,0,0,0.05,19,0)" xlink:href="#ag"/><use transform="matrix(0.05,0,0,0.05,33.95,0)" xlink:href="#ag"/><use transform="matrix(0.05,0,0,0.05,48.900000000000006,0)" xlink:href="#ab"/><use transform="matrix(0.05,0,0,0.05,52.85,0)" xlink:href="#O"/></g><path d="M11 0l48-248h184l-5 28H87l-15 79h140l-5 27H67L50-27h158l-5 27H11" id="aN"/><g id="I"><use transform="matrix(0.05,0,0,0.05,0,0)" xlink:href="#aN"/><use transform="matrix(0.05,0,0,0.05,12,0)" xlink:href="#V"/><use transform="matrix(0.05,0,0,0.05,22,0)" xlink:href="#aK"/></g><path fill="#6f7681" d="M147 0H94L2-248h55l64 206c17-72 42-137 63-206h54" id="aO"/><path fill="#6f7681" d="M67-125c0 53 21 87 73 88 37 1 54-22 65-47l45 17C233-25 199 4 140 4 58 4 20-42 15-125 8-235 124-281 211-232c18 10 29 29 36 50l-46 12c-8-25-30-41-62-41-52 0-71 34-72 86" id="aP"/><path fill="#6f7681" d="M169-182c-1-43-94-46-97-3 18 66 151 10 154 114 3 95-165 93-204 36-6-8-10-19-12-30l50-8c3 46 112 56 116 5-17-69-150-10-154-114-4-87 153-88 188-35 5 8 8 18 10 28" id="aQ"/><g id="J"><use transform="matrix(0.0728395061728395,0,0,0.0728395061728395,0,0)" xlink:href="#aO"/><use transform="matrix(0.0728395061728395,0,0,0.0728395061728395,17.48148148148148,0)" xlink:href="#aP"/><use transform="matrix(0.0728395061728395,0,0,0.0728395061728395,36.34691358024691,0)" xlink:href="#aQ"/></g><path fill="#6f7681" d="M190-63c-7 42-38 67-86 67-59 0-84-38-90-98-12-110 154-137 174-36l-49 2c-2-19-15-32-35-32-30 0-35 28-38 64-6 74 65 87 74 30" id="aR"/><path fill="#6f7681" d="M133-34C117-15 103 5 69 4 32 3 11-16 11-54c-1-60 55-63 116-61 1-26-3-47-28-47-18 1-26 9-28 27l-52-2c7-38 36-58 82-57s74 22 75 68l1 82c-1 14 12 18 25 15v27c-30 8-71 5-69-32zm-48 3c29 0 43-24 42-57-32 0-66-3-65 30 0 17 8 27 23 27" id="aS"/><path fill="#6f7681" d="M135-194c87-1 58 113 63 194h-50c-7-57 23-157-34-157-59 0-34 97-39 157H25l-1-190h47c2 12-1 28 3 38 12-26 28-41 61-42" id="aT"/><path fill="#6f7681" d="M185-48c-13 30-37 53-82 52C43 2 14-33 14-96s30-98 90-98c62 0 83 45 84 108H66c0 31 8 55 39 56 18 0 30-7 34-22zm-45-69c5-46-57-63-70-21-2 6-4 13-4 21h74" id="aU"/><path fill="#6f7681" d="M135-150c-39-12-60 13-60 57V0H25l-1-190h47c2 13-1 29 3 40 6-28 27-53 61-41v41" id="aV"/><g id="K"><use transform="matrix(0.0728395061728395,0,0,0.0728395061728395,0,0)" xlink:href="#aQ"/><use transform="matrix(0.0728395061728395,0,0,0.0728395061728395,17.48148148148148,0)" xlink:href="#aR"/><use transform="matrix(0.0728395061728395,0,0,0.0728395061728395,32.04938271604938,0)" xlink:href="#aS"/><use transform="matrix(0.0728395061728395,0,0,0.0728395061728395,46.61728395061728,0)" xlink:href="#aT"/><use transform="matrix(0.0728395061728395,0,0,0.0728395061728395,62.56913580246913,0)" xlink:href="#aT"/><use transform="matrix(0.0728395061728395,0,0,0.0728395061728395,78.52098765432098,0)" xlink:href="#aU"/><use transform="matrix(0.0728395061728395,0,0,0.0728395061728395,93.08888888888887,0)" xlink:href="#aV"/></g><path fill="#6f7681" d="M76-208v77h127v40H76V0H24v-248h183v40H76" id="aW"/><path fill="#6f7681" d="M25 0v-261h50V0H25" id="aX"/><path fill="#6f7681" d="M110-194c64 0 96 36 96 99 0 64-35 99-97 99-61 0-95-36-95-99 0-62 34-99 96-99zm-1 164c35 0 45-28 45-65 0-40-10-65-43-65-34 0-45 26-45 65 0 36 10 65 43 65" id="aY"/><path fill="#6f7681" d="M231 0h-52l-39-155L100 0H48L-1-190h46L77-45c9-52 24-97 36-145h53l37 145 32-145h46" id="aZ"/><g id="L"><use transform="matrix(0.0728395061728395,0,0,0.0728395061728395,0,0)" xlink:href="#aW"/><use transform="matrix(0.0728395061728395,0,0,0.0728395061728395,15.95185185185185,0)" xlink:href="#aX"/><use transform="matrix(0.0728395061728395,0,0,0.0728395061728395,23.235802469135802,0)" xlink:href="#aY"/><use transform="matrix(0.0728395061728395,0,0,0.0728395061728395,39.187654320987654,0)" xlink:href="#aZ"/></g><path fill="#6f7681" d="M24-248c120-7 223 5 221 122C244-46 201 0 124 0H24v-248zM76-40c74 7 117-18 117-86 0-67-45-88-117-82v168" id="ba"/><path fill="#6f7681" d="M25-224v-37h50v37H25zM25 0v-190h50V0H25" id="bb"/><path fill="#6f7681" d="M195-6C206 82 75 100 31 46c-4-6-6-13-8-21l49-6c3 16 16 24 34 25 40 0 42-37 40-79-11 22-30 35-61 35-53 0-70-43-70-97 0-56 18-96 73-97 30 0 46 14 59 34l2-30h47zm-90-29c32 0 41-27 41-63 0-35-9-62-40-62-32 0-39 29-40 63 0 36 9 62 39 62" id="bc"/><path fill="#6f7681" d="M220-157c-53 9-28 100-34 157h-49v-107c1-27-5-49-29-50C55-147 81-57 75 0H25l-1-190h47c2 12-1 28 3 38 10-53 101-56 108 0 13-22 24-43 59-42 82 1 51 116 57 194h-49v-107c-1-25-5-48-29-50" id="bd"/><g id="M"><use transform="matrix(0.0728395061728395,0,0,0.0728395061728395,0,0)" xlink:href="#ba"/><use transform="matrix(0.0728395061728395,0,0,0.0728395061728395,18.86543209876543,0)" xlink:href="#bb"/><use transform="matrix(0.0728395061728395,0,0,0.0728395061728395,26.14938271604938,0)" xlink:href="#aS"/><use transform="matrix(0.0728395061728395,0,0,0.0728395061728395,40.717283950617286,0)" xlink:href="#bc"/><use transform="matrix(0.0728395061728395,0,0,0.0728395061728395,56.66913580246913,0)" xlink:href="#aV"/><use transform="matrix(0.0728395061728395,0,0,0.0728395061728395,66.86666666666666,0)" xlink:href="#aS"/><use transform="matrix(0.0728395061728395,0,0,0.0728395061728395,81.43456790123457,0)" xlink:href="#bd"/></g></defs></g></svg>